<svg width="22" height="22" viewBox="0 0 22 22" fill="none" xmlns="http://www.w3.org/2000/svg">
<path fill-rule="evenodd" clip-rule="evenodd" d="M1 11.3071C1 5.74361 5.47 1.22833 11 1.22833C16.52 1.22833 21 5.74361 21 11.3071C21 16.8806 16.52 21.3858 11 21.3858C5.47 21.3858 1 16.8806 1 11.3071ZM13.23 13.1515L14.85 7.99118C14.96 7.63842 14.64 7.30583 14.29 7.41669L9.16995 9.02929C8.95995 9.09984 8.78995 9.2611 8.72995 9.47275L7.12995 14.6431C7.01995 14.9858 7.34995 15.3184 7.68995 15.2076L12.79 13.595C13 13.5345 13.17 13.3631 13.23 13.1515Z" fill="#F4DB71"/>
<path d="M14.85 7.99118L15.327 8.14094L15.3273 8.14003L14.85 7.99118ZM13.23 13.1515L12.7527 13.0017L12.7489 13.0151L13.23 13.1515ZM14.29 7.41669L14.4402 7.8936L14.4409 7.89335L14.29 7.41669ZM9.16995 9.02929L9.01972 8.5523L9.01072 8.55532L9.16995 9.02929ZM8.72995 9.47275L9.20774 9.62061L9.211 9.60912L8.72995 9.47275ZM7.12995 14.6431L7.60605 14.796L7.6076 14.791L7.12995 14.6431ZM7.68995 15.2076L7.5392 14.7308L7.53494 14.7322L7.68995 15.2076ZM12.79 13.595L12.6515 13.1143L12.6392 13.1182L12.79 13.595ZM11 0.728333C5.18984 0.728333 0.5 5.4715 0.5 11.3071H1.5C1.5 6.01572 5.75016 1.72833 11 1.72833V0.728333ZM21.5 11.3071C21.5 5.47117 16.7998 0.728333 11 0.728333V1.72833C16.2402 1.72833 20.5 6.01605 20.5 11.3071H21.5ZM11 21.8858C16.7995 21.8858 21.5 17.1534 21.5 11.3071H20.5C20.5 16.6079 16.2405 20.8858 11 20.8858V21.8858ZM0.5 11.3071C0.5 17.1531 5.19017 21.8858 11 21.8858V20.8858C5.74983 20.8858 1.5 16.6082 1.5 11.3071H0.5ZM14.3729 7.84142L12.7529 13.0017L13.707 13.3013L15.327 8.14094L14.3729 7.84142ZM14.4409 7.89335C14.4363 7.89482 14.4239 7.89651 14.4092 7.89251C14.3964 7.88903 14.3882 7.88301 14.3836 7.87823C14.379 7.87349 14.3753 7.86739 14.3733 7.85964C14.3723 7.85559 14.3719 7.85153 14.372 7.84785C14.3721 7.84406 14.3727 7.84207 14.3726 7.84233L15.3273 8.14003C15.5501 7.42551 14.898 6.69959 14.139 6.94003L14.4409 7.89335ZM9.32016 9.50619L14.4402 7.8936L14.1397 6.93979L9.01975 8.55239L9.32016 9.50619ZM9.211 9.60912C9.22034 9.57616 9.25484 9.52823 9.32918 9.50326L9.01072 8.55532C8.66506 8.67145 8.35956 8.94604 8.24891 9.33639L9.211 9.60912ZM7.6076 14.791L9.2076 9.62057L8.2523 9.32494L6.6523 14.4953L7.6076 14.791ZM7.53494 14.7322C7.54549 14.7288 7.56068 14.728 7.57473 14.7318C7.58666 14.7351 7.59308 14.7402 7.59614 14.7433C7.59921 14.7464 7.60351 14.7521 7.60623 14.7622C7.60948 14.7744 7.6088 14.7873 7.60602 14.796L6.65388 14.4903C6.42198 15.2128 7.10845 15.9231 7.84496 15.6829L7.53494 14.7322ZM12.6392 13.1182L7.53921 14.7308L7.84069 15.6843L12.9407 14.0717L12.6392 13.1182ZM12.7489 13.0151C12.7356 13.0619 12.6942 13.1022 12.6516 13.1145L12.9283 14.0754C13.3057 13.9668 13.6043 13.6644 13.711 13.2879L12.7489 13.0151Z" fill="black"/>
</svg>
