<svg width="113" height="61" viewBox="0 0 113 61" fill="none" xmlns="http://www.w3.org/2000/svg">
<path d="M8.97059 14.0184L14.2188 21.8906L16.1406 19.9688L19.9844 21.8906L21.9062 19.9688H29.5938V12.2812L23.8281 8.4375L12.2969 6.51562L8.45312 12.2812L8.97059 14.0184Z" fill="#FDC5CA"/>
<path d="M112.234 60.3281H100.703V58.4145C100.703 57.8346 100.865 57.266 101.17 56.7727C101.474 56.2793 101.911 55.8806 102.43 55.6212L104.547 54.5625V52.6406L85.3281 48.7969L69.9531 43.0313L69.2661 42.7574C63.3442 40.3872 57.7597 37.2484 52.6562 33.4219L53.4899 30.9235L56.5 21.8906C58.9215 21.2845 61.443 21.1916 63.9026 21.6177C66.3622 22.0438 68.7055 22.9796 70.7819 24.3651L75.7188 27.6563L83.9492 34.5149C86.1259 36.3297 87.904 38.5749 89.1719 41.1094C91.5618 40.5115 94.0576 40.4738 96.4646 40.9993C98.8715 41.5248 101.124 42.5992 103.048 44.1387L106.469 46.875L108.391 44.9531H112.234V60.3281Z" fill="#FDC5CA"/>
<path d="M56.5 21.8906L53.4899 30.9235L52.6562 33.4219L46.8906 31.5H37.2812L27.398 26.5584L27.6719 25.7344L26.1416 24.2041C25.408 23.4706 24.8261 22.5998 24.4292 21.6415C24.0322 20.6831 23.828 19.6559 23.8281 18.6186V18.4313C23.8283 17.1309 24.1494 15.8506 24.7629 14.7041C25.3764 13.5575 26.2634 12.5801 27.3452 11.8584L27.6046 11.6855C28.9022 10.8204 30.4269 10.3589 31.9865 10.3594H33.9564C37.3618 10.3595 40.6753 11.4638 43.4 13.5065L46.8906 16.125L56.5 21.8906Z" fill="#E04446"/>
<path d="M23.8281 8.4375C23.3237 9.19502 22.6749 9.84569 21.9188 10.3523C21.1627 10.8589 20.3142 11.2116 19.4218 11.39C18.5293 11.5685 17.6104 11.5694 16.7177 11.3925C15.8249 11.2157 14.9758 10.8646 14.2188 10.3594L10.5168 14.9863L9.46691 16.3004C9.09726 16.7621 8.63441 17.1406 8.10856 17.4114C7.58271 17.6821 7.00569 17.8389 6.41514 17.8715C5.8246 17.9042 5.23381 17.8119 4.68132 17.6008C4.12884 17.3897 3.62708 17.0644 3.2088 16.6463L0.765625 14.2031L2.40404 12.2933L12.2969 0.75L23.8281 8.4375Z" fill="#BA8B5D"/>
<path d="M10.5168 14.9863L9.46692 16.3004C9.09726 16.7621 8.63441 17.1406 8.10856 17.4114C7.58271 17.6821 7.00569 17.8389 6.41514 17.8715C5.8246 17.9042 5.23381 17.8119 4.68132 17.6008C4.12884 17.3897 3.62708 17.0644 3.2088 16.6463L0.765625 14.2031L2.40404 12.2933L2.41841 12.2812L4.85922 14.7244C5.59991 15.4654 6.59066 15.903 7.63725 15.9515C8.68384 15.9999 9.71079 15.6557 10.5168 14.9863Z" fill="#9F764A"/>
<path d="M53.4899 30.9234L52.6563 33.4219L46.8907 31.5H37.2813L27.398 26.5584L27.6719 25.7344L26.6605 24.723L35.3594 18.0469L40.7238 25.4941L41.0458 29.0184H46.8114L53.4899 30.9234Z" fill="#D6323F"/>
<path d="M38.5977 47.1561L37.6272 56.8663C37.5324 57.8148 37.0885 58.6943 36.3818 59.334C35.6751 59.9737 34.7559 60.328 33.8027 60.3281H19.9844C19.9843 59.7186 20.1044 59.1151 20.3377 58.552C20.571 57.9889 20.913 57.4773 21.3441 57.0465L22.4684 55.9223C22.8992 55.4911 23.4108 55.1491 23.9739 54.9158C24.537 54.6825 25.1405 54.5624 25.75 54.5625H31.5156L28.7145 43.3556C28.0433 40.6655 28.3551 37.8242 29.5938 35.3438C28.4379 34.1891 27.6269 32.7351 27.2517 31.145C26.8766 29.5549 26.9522 27.8917 27.4701 26.3422L27.6719 25.7344L26.5452 24.6077C24.8056 22.8674 23.8283 20.5075 23.8281 18.0469L33.4664 19.8486L34.3696 22.102C35.3137 24.4635 37.7713 25.1458 37.9491 27.6562C37.9899 28.2376 38.0107 28.8198 38.0116 29.4028C38.0114 31.4055 37.7662 33.4006 37.2812 35.3438C38.5476 39.1444 38.9962 43.1698 38.5977 47.1561Z" fill="#FDC5CA"/>
<path d="M27.4701 26.3422L27.6719 25.7344L26.5452 24.6077C24.8056 22.8674 23.8283 20.5075 23.8281 18.0469H35.3594L36.2603 20.2979C37.2009 22.6484 37.7707 25.1308 37.9491 27.6562H27.141C27.2169 27.2104 27.3269 26.7711 27.4701 26.3422Z" fill="#E04446"/>
<path d="M75.7188 27.6563L71.1038 39.9635L69.9531 43.0313L69.2661 42.7574C63.3442 40.3872 57.7597 37.2484 52.6562 33.4219L53.4899 30.9235L56.5 21.8906C58.9215 21.2845 61.443 21.1916 63.9026 21.6177C66.3622 22.0438 68.7055 22.9796 70.7819 24.3651L75.7188 27.6563Z" fill="#68737F"/>
<path d="M104.547 52.6406L85.3281 48.7969L69.9531 43.0312L69.2661 42.7573C63.3442 40.3872 57.7597 37.2484 52.6562 33.4219L53.4899 30.9235L71.1038 39.9635L85.9287 46.3945L106.433 50.8215L104.547 52.6406Z" fill="#FC979E"/>
<path d="M71.1039 39.9635L69.9531 43.0313L69.2661 42.7574C63.3442 40.3872 57.7597 37.2484 52.6562 33.4219L53.4899 30.9235L71.1039 39.9635Z" fill="#4F5761"/>
<path d="M38.5977 47.1561L37.6272 56.8663C37.5324 57.8148 37.0885 58.6943 36.3818 59.334C35.6751 59.9737 34.7559 60.328 33.8027 60.3281H29.9061C31.427 60.3281 32.8981 59.7862 34.0555 58.7995C35.213 57.8129 35.981 56.4461 36.2218 54.9444L36.4549 53.4863C36.7348 51.7441 36.8754 49.9824 36.8753 48.2179C36.875 43.8261 36.0063 39.4778 34.3191 35.423C35.8554 33.2852 37.0134 30.8994 37.7425 28.3697L37.9491 27.6562C37.9899 28.2376 38.0108 28.8198 38.0116 29.4028C38.0114 31.4055 37.7662 33.4006 37.2813 35.3438C38.5476 39.1444 38.9962 43.1698 38.5977 47.1561Z" fill="#FC979E"/>
<path d="M112.234 44.9531V60.3281H100.703V58.4134C100.704 57.8338 100.866 57.2659 101.171 56.7731C101.476 56.2802 101.912 55.8817 102.43 55.622L104.547 54.5625V52.6406L106.469 46.875L108.391 44.9531H112.234Z" fill="#529DDF"/>
<path d="M108.391 56.4844H101.373C101.657 56.1218 102.018 55.8271 102.43 55.622L104.547 54.5625V52.6406C105.052 52.6405 105.552 52.7398 106.018 52.9329C106.484 53.1261 106.908 53.4092 107.265 53.7661C107.622 54.1231 107.905 54.5469 108.098 55.0133C108.291 55.4797 108.391 55.9796 108.391 56.4844Z" fill="#4384C3"/>
<path d="M100.703 60.3281V58.4062H110.312V44.9531H112.234V60.3281H100.703Z" fill="#D4E4F0"/>
</svg>
