<svg width="527" height="395" viewBox="0 0 527 395" fill="none" xmlns="http://www.w3.org/2000/svg">
<path d="M112.152 311.457C112.778 311.095 113.437 310.733 114.063 310.371C114.622 310.075 114.128 309.219 113.568 309.515C112.943 309.877 112.284 310.24 111.658 310.602C111.098 310.931 111.592 311.787 112.152 311.457Z" fill="#161616"/>
<path d="M103.325 315.704C109.353 313.136 115.38 310.569 121.408 308.001C127.435 305.434 133.068 302.899 139.82 303.59C145.979 304.216 152.04 306.553 157.804 308.725C163.831 310.997 169.727 313.564 175.458 316.461C176.578 317.02 177.599 315.309 176.446 314.749C167.355 310.207 157.836 306.191 148.087 303.327C143.377 301.945 138.436 301.023 133.529 301.714C128.621 302.405 124.01 304.743 119.497 306.685C113.766 309.12 108.035 311.556 102.337 314.025C101.151 314.486 102.172 316.198 103.325 315.704Z" fill="#161616"/>
<path d="M159.187 330.121C186.756 330.121 214.291 330.121 241.86 330.121C249.732 330.121 257.604 330.121 265.476 330.121C266.761 330.121 266.761 328.146 265.476 328.146C237.908 328.146 210.372 328.146 182.803 328.146C174.931 328.146 167.059 328.146 159.187 328.146C157.902 328.146 157.902 330.121 159.187 330.121Z" fill="#161616"/>
<path d="M247.69 336.573C282.242 336.573 316.793 336.573 351.344 336.573C361.193 336.573 371.008 336.573 380.856 336.573C382.141 336.573 382.141 334.598 380.856 334.598C346.305 334.598 311.753 334.598 277.202 334.598C267.354 334.598 257.538 334.598 247.69 334.598C246.438 334.598 246.438 336.573 247.69 336.573Z" fill="#161616"/>
<path d="M296.503 329.364C335.106 329.364 373.676 329.364 412.279 329.364C423.247 329.364 434.215 329.364 445.183 329.364C446.468 329.364 446.468 327.389 445.183 327.389C406.581 327.389 368.011 327.389 329.408 327.389C318.44 327.389 307.472 327.389 296.503 327.389C295.219 327.389 295.219 329.364 296.503 329.364Z" fill="#161616"/>
<path d="M179.641 318.962C185.504 321.036 191.334 323.242 197.098 325.579C198.284 326.072 198.778 324.163 197.625 323.67C191.861 321.332 186.031 319.127 180.168 317.053C178.982 316.625 178.455 318.535 179.641 318.962Z" fill="#161616"/>
<path d="M106.52 334.927C121.671 334.927 136.855 334.927 152.007 334.927C153.291 334.927 153.291 332.952 152.007 332.952C136.855 332.952 121.671 332.952 106.52 332.952C105.268 332.952 105.268 334.927 106.52 334.927Z" fill="#161616"/>
<path d="M241.761 356.29C261.063 356.29 280.364 356.29 299.665 356.29C300.95 356.29 300.95 354.315 299.665 354.315C280.364 354.315 261.063 354.315 241.761 354.315C240.477 354.315 240.477 356.29 241.761 356.29Z" fill="#161616"/>
<path d="M78.6218 335.059C73.3848 331.602 69.4652 326.599 66.6655 321.036C65.0845 317.942 63.8658 314.716 62.8448 311.425C62.3836 310.009 61.6261 308.297 61.5273 306.816C61.4943 306.158 61.2638 306.257 61.9555 306.224C62.3178 306.224 62.8448 306.487 63.1741 306.586C64.0964 306.849 64.9857 307.145 65.908 307.409C66.5338 307.606 66.7643 306.652 66.1714 306.454C65.0516 306.125 63.9317 305.763 62.8118 305.434C62.3178 305.269 61.5602 304.907 61.0003 305.105C60.078 305.401 60.3745 306.355 60.5391 307.08C61.5602 311.095 62.8777 315.045 64.5246 318.831C67.4889 325.612 71.9026 331.767 78.1278 335.915C78.6548 336.277 79.1488 335.421 78.6218 335.059Z" fill="#E8E8E8"/>
<path d="M65.348 306.29C60.4403 294.308 60.2427 281.24 60.078 268.468C59.7816 268.6 59.5181 268.699 59.2216 268.83C60.1439 269.752 61.0991 270.707 62.0213 271.628C62.4824 272.089 63.1741 271.365 62.713 270.937C61.7908 270.015 60.8356 269.061 59.9133 268.139C59.6169 267.843 59.0569 268.073 59.0569 268.501C59.1887 281.339 59.4193 294.505 64.3599 306.586C64.6234 307.145 65.5786 306.882 65.348 306.29Z" fill="#E8E8E8"/>
<path d="M62.9107 270.674C62.9765 262.543 63.8659 254.446 65.6445 246.513C65.4139 246.612 65.1504 246.71 64.9199 246.809C74.34 253.491 78.029 265.374 81.4545 275.842C85.4729 288.152 88.6678 300.825 90.0512 313.729C90.4464 317.317 90.677 320.905 90.7758 324.525C90.8746 328.278 91.0722 332.195 90.0512 335.849C89.8865 336.474 90.8417 336.737 91.0064 336.112C91.8627 332.952 91.8298 329.627 91.7969 326.402C91.7639 323.11 91.5992 319.818 91.3028 316.527C90.7099 309.91 89.6559 303.327 88.2396 296.842C86.7574 290.062 84.9129 283.38 82.772 276.796C80.9604 271.167 79.083 265.473 76.5468 260.107C73.9118 254.61 70.4204 249.541 65.4139 245.986C65.1504 245.822 64.7552 245.986 64.6893 246.282C62.9107 254.314 61.9884 262.477 61.9225 270.707C61.9225 271.332 62.9107 271.332 62.9107 270.674Z" fill="#E8E8E8"/>
<path d="M85.4728 287.066C90.3146 272.78 100.789 261.358 106.783 247.632C106.487 247.533 106.158 247.467 105.861 247.369C106.454 253.787 106.948 260.239 107.409 266.691C107.64 269.917 107.804 273.142 108.002 276.368C108.068 277.882 108.167 279.364 108.233 280.878C108.298 282.03 108.364 282.326 107.475 283.083C106.849 283.61 105.993 284.005 105.268 284.466C104.741 284.795 105.235 285.651 105.762 285.322C106.849 284.63 107.969 283.939 109.056 283.248C109.188 283.149 109.32 282.985 109.287 282.82C108.727 271.003 107.936 259.153 106.849 247.369C106.816 246.941 106.158 246.612 105.927 247.105C99.8665 260.93 89.3924 272.418 84.5176 286.77C84.32 287.428 85.2752 287.659 85.4728 287.066Z" fill="#E8E8E8"/>
<path d="M105.235 285.289C109.847 285.025 106.816 294.966 106.289 297.402C105.433 301.418 104.412 305.401 103.226 309.318C100.822 317.251 97.6926 324.92 93.9377 332.294C93.6413 332.853 94.4977 333.347 94.7941 332.787C99.1419 324.262 102.633 315.342 105.202 306.125C106.487 301.484 107.541 296.777 108.331 292.037C108.76 289.403 109.517 284.038 105.268 284.301C104.609 284.334 104.609 285.322 105.235 285.289Z" fill="#E8E8E8"/>
<path d="M105.499 248.784C103.029 268.863 94.2671 287.33 88.9972 306.685C88.8325 307.31 89.7877 307.573 89.9523 306.948C95.2553 287.494 103.984 268.929 106.487 248.784C106.553 248.126 105.565 248.159 105.499 248.784Z" fill="#E8E8E8"/>
<path d="M64.5575 246.678C72.232 269.588 78.4242 292.991 83.0684 316.691C84.3859 323.406 85.5717 330.187 86.6586 336.935C86.7574 337.56 87.7126 337.297 87.6138 336.672C83.8589 312.807 78.556 289.173 71.705 266C69.7616 259.416 67.6866 252.866 65.5127 246.381C65.3151 245.822 64.3599 246.085 64.5575 246.678Z" fill="#E8E8E8"/>
<path d="M59.7486 276.829C68.4112 282.129 75.2951 289.897 79.5441 299.114C79.8076 299.706 80.664 299.18 80.4005 298.62C76.0856 289.272 69.037 281.372 60.2427 275.973C59.7157 275.644 59.1887 276.5 59.7486 276.829Z" fill="#E8E8E8"/>
<path d="M62.219 312.083C70.8156 315.111 80.2028 318.6 84.88 326.994C85.1764 327.554 86.0328 327.06 85.7363 326.5C80.8945 317.876 71.3097 314.255 62.4825 311.128C61.8896 310.898 61.6261 311.852 62.219 312.083Z" fill="#E8E8E8"/>
<path d="M74.1752 257.803C73.3847 262.84 72.9236 267.876 72.8577 272.978C72.8577 273.603 73.8459 273.603 73.8459 272.978C73.9117 267.975 74.3399 263.004 75.1304 258.067C75.2292 257.441 74.274 257.178 74.1752 257.803Z" fill="#E8E8E8"/>
<path d="M91.5004 272.879C92.3568 278.804 93.1802 284.729 94.0366 290.687C94.1354 291.312 95.0906 291.049 94.9918 290.424C94.1354 284.499 93.312 278.574 92.4556 272.616C92.3568 271.957 91.4016 272.254 91.5004 272.879Z" fill="#E8E8E8"/>
<path d="M100.031 276.632C103.193 273.801 105.894 270.542 108.035 266.855C108.364 266.296 107.508 265.802 107.179 266.362C105.071 269.95 102.436 273.175 99.3395 275.94C98.8454 276.368 99.57 277.06 100.031 276.632Z" fill="#E8E8E8"/>
<path d="M396.205 326.764C393.175 317.843 391.462 308.594 391.067 299.18C390.803 299.311 390.573 299.476 390.309 299.607C391.956 300.562 393.57 301.55 395.217 302.504C395.579 302.702 396.073 302.372 395.942 301.945C394.46 297.764 394.196 293.287 395.316 288.975C396.469 284.63 399.005 280.68 401.146 276.763C405.592 268.567 410.072 260.371 414.519 252.175C414.222 252.142 413.926 252.109 413.629 252.043C414.683 258.527 415.737 265.045 416.791 271.53C417.318 274.722 417.845 277.915 418.339 281.108C418.603 282.688 419.327 284.696 418.372 286.145C417.582 287.33 416.132 287.988 414.848 288.547C414.42 288.745 414.617 289.305 414.98 289.436C416.396 290.029 418.109 290.786 418.8 292.234C419.558 293.88 418.636 296.25 418.208 297.962C417.384 301.319 416.396 304.644 415.243 307.935C412.905 314.552 409.907 320.872 406.317 326.895C405.988 327.455 406.844 327.949 407.173 327.389C411.291 320.444 414.65 313.07 417.121 305.368C417.713 303.492 418.273 301.582 418.767 299.673C419.229 297.863 419.854 295.921 420.019 294.045C420.283 290.983 417.648 289.535 415.21 288.515C415.243 288.811 415.276 289.107 415.342 289.403C417.285 288.547 419.558 287.33 419.789 284.96C419.92 283.412 419.426 281.701 419.196 280.22C418.899 278.31 418.57 276.401 418.273 274.459C417.055 266.888 415.803 259.35 414.584 251.78C414.519 251.352 413.86 251.319 413.695 251.648C408.919 260.404 404.143 269.16 399.367 277.948C397.259 281.832 394.921 285.684 394.064 290.095C393.274 294.143 393.636 298.291 395.019 302.175C395.25 301.977 395.514 301.813 395.744 301.615C394.097 300.661 392.483 299.673 390.836 298.719C390.507 298.521 390.079 298.752 390.079 299.147C390.441 308.627 392.187 318.008 395.25 326.994C395.448 327.62 396.403 327.356 396.205 326.764Z" fill="#E8E8E8"/>
<path d="M418.833 274.163C425.684 266.987 432.502 259.745 439.222 252.438C438.958 252.273 438.662 252.109 438.398 251.944C437.344 257.145 436.883 262.477 437.146 267.777C437.278 270.509 437.673 273.175 438.003 275.875C438.168 277.092 438.299 278.343 438.332 279.561C438.365 280.22 438.464 281.24 437.739 281.668C437.146 281.997 435.664 281.931 434.94 281.997C434.577 282.03 434.215 282.557 434.577 282.853C438.431 285.914 435.104 291.51 433.49 294.933C431.745 298.653 429.867 302.274 427.825 305.829C423.675 313.07 418.899 319.95 413.596 326.402C413.201 326.895 413.893 327.587 414.288 327.093C420.151 319.983 425.355 312.346 429.834 304.315C432.107 300.233 434.215 296.02 436.06 291.74C437.377 288.646 438.365 284.63 435.302 282.195C435.17 282.491 435.071 282.754 434.94 283.05C436.784 282.853 439.09 283.149 439.32 280.878C439.584 277.85 438.76 274.624 438.431 271.628C437.706 265.177 438.036 258.659 439.353 252.273C439.452 251.812 438.892 251.417 438.53 251.78C431.778 259.087 424.993 266.329 418.142 273.505C417.68 273.932 418.372 274.624 418.833 274.163Z" fill="#E8E8E8"/>
<path d="M434.577 258.133C429.736 268.04 428.879 279.43 425.487 289.831C421.896 300.891 416.824 311.392 411.389 321.629C411.093 322.188 411.949 322.682 412.246 322.122C417.516 312.149 422.456 301.945 426.046 291.247C427.825 285.914 429.143 280.516 430.361 275.019C431.58 269.423 432.898 263.794 435.434 258.626C435.697 258.067 434.874 257.573 434.577 258.133Z" fill="#E8E8E8"/>
<path d="M412.509 258.067C411.587 279.331 403.122 299.311 401.31 320.444C401.245 321.069 402.233 321.069 402.299 320.444C404.11 299.311 412.575 279.331 413.497 258.067C413.497 257.441 412.509 257.441 412.509 258.067Z" fill="#E8E8E8"/>
<path d="M395.942 284.927C398.017 290.72 400.586 296.283 403.649 301.615C403.978 302.175 404.835 301.681 404.505 301.122C401.475 295.855 398.939 290.358 396.897 284.663C396.699 284.071 395.744 284.334 395.942 284.927Z" fill="#E8E8E8"/>
<path d="M405.889 266.559C407.075 271.036 408.227 275.512 409.413 279.989C409.578 280.615 410.533 280.351 410.368 279.726C409.183 275.249 408.03 270.772 406.844 266.296C406.679 265.67 405.724 265.934 405.889 266.559Z" fill="#E8E8E8"/>
<path d="M415.54 264.057C414.057 266.79 412.608 269.555 411.126 272.287C410.829 272.846 411.686 273.34 411.982 272.78C413.464 270.048 414.914 267.283 416.396 264.551C416.692 263.992 415.836 263.498 415.54 264.057Z" fill="#E8E8E8"/>
<path d="M422.588 268.699C423.082 275.94 423.807 283.182 424.795 290.391C424.894 291.016 425.816 290.753 425.75 290.128C424.795 283.018 424.07 275.875 423.576 268.699C423.543 268.073 422.555 268.073 422.588 268.699Z" fill="#E8E8E8"/>
<path d="M429.966 275.973C430.296 274.064 432.107 272.583 433.359 271.167C434.643 269.719 435.961 268.271 437.245 266.822C437.674 266.362 436.982 265.637 436.554 266.131C434.973 267.876 433.425 269.62 431.844 271.365C430.691 272.649 429.34 273.9 429.011 275.677C428.912 276.335 429.867 276.599 429.966 275.973Z" fill="#E8E8E8"/>
<path d="M61.2967 240.127C70.0581 239.732 78.2265 236.539 86.7244 234.729C96.1445 232.721 105.499 233.708 114.787 235.881C123.878 238.02 132.837 240.785 141.862 243.155C150.92 245.558 159.977 247.83 169.068 250.002C205.662 258.758 242.716 265.802 279.969 271.102C300.851 274.064 321.832 276.467 342.846 278.31C343.472 278.376 343.472 277.389 342.846 277.323C305.166 273.998 267.683 268.896 230.497 262.017C211.887 258.56 193.343 254.709 174.931 250.364C156.717 246.085 138.667 241.18 120.617 236.309C110.835 233.675 100.69 231.536 90.5452 232.984C80.6639 234.4 71.3756 238.646 61.3296 239.074C60.6709 239.14 60.6709 240.127 61.2967 240.127Z" fill="#E8E8E8"/>
<path d="M219.693 261.72C249.337 258.857 278.717 253.656 307.537 246.118C322.03 242.332 336.259 237.724 350.521 233.149C357.405 230.943 364.388 228.87 371.502 227.553C379.177 226.105 386.917 225.775 394.723 226.269C403.386 226.829 412.048 227.948 420.678 228.902C429.34 229.857 438.036 230.779 446.698 231.733C447.324 231.799 447.324 230.812 446.698 230.746C431.218 229.067 415.737 227.191 400.224 225.71C392.648 224.985 385.039 224.689 377.497 225.644C370.382 226.5 363.367 228.244 356.516 230.285C342.188 234.531 328.09 239.535 313.664 243.485C299.27 247.435 284.745 250.792 270.087 253.557C253.421 256.717 236.59 259.12 219.693 260.733C219.067 260.799 219.067 261.786 219.693 261.72Z" fill="#E8E8E8"/>
<path d="M226.083 309.779C251.445 309.614 271.109 291.148 293.407 281.833C299.896 279.133 306.714 277.158 313.73 276.632C314.356 276.599 314.356 275.611 313.73 275.644C288.631 277.52 269.593 296.052 246.867 304.611C240.213 307.112 233.23 308.725 226.083 308.791C225.424 308.791 225.424 309.779 226.083 309.779Z" fill="#E8E8E8"/>
<path d="M316.892 275.085C344.526 269.127 365.145 248.093 390.145 236.375C397.358 232.984 405 230.45 412.937 229.396C413.563 229.297 413.563 228.31 412.937 228.409C384.644 232.161 363.334 253.228 338.861 265.868C331.812 269.522 324.401 272.484 316.628 274.163C316.002 274.262 316.266 275.216 316.892 275.085Z" fill="#E8E8E8"/>
<path d="M290.937 136.242C303.157 130.613 316.958 141.673 328.947 134.662C329.507 134.333 329.013 133.477 328.453 133.806C316.595 140.752 302.696 129.757 290.443 135.386C289.85 135.65 290.344 136.505 290.937 136.242Z" fill="#E8E8E8"/>
<path d="M233.099 74.8525C246.438 72.0216 259.745 76.202 272.558 79.7241C285.338 83.2462 298.216 85.4187 311.49 85.1554C318.967 84.9908 326.411 84.135 333.723 82.6537C334.349 82.5221 334.085 81.5675 333.459 81.6991C319.922 84.4641 305.923 84.9579 292.221 83.0487C279.079 81.2054 266.695 76.3666 253.685 74.0295C246.768 72.7787 239.719 72.4495 232.835 73.9308C232.242 74.0295 232.506 74.9841 233.099 74.8525Z" fill="#E8E8E8"/>
<path d="M79.2476 113.595C91.2369 106.847 105.169 106.288 117.949 111.061C124.405 113.464 130.564 116.426 137.218 118.27C143.575 120.047 150.129 121.1 156.717 121.462C164.292 121.857 171.901 121.265 179.378 119.784C180.003 119.652 179.74 118.697 179.114 118.829C165.247 121.627 150.821 121.1 137.218 117.249C130.465 115.34 124.207 112.312 117.653 109.909C111.493 107.67 105.104 106.518 98.549 106.913C91.5992 107.341 84.847 109.316 78.7865 112.74C78.1936 113.036 78.6877 113.892 79.2476 113.595Z" fill="#E8E8E8"/>
<path d="M396.831 109.678C390.869 103.194 388.663 93.8454 390.474 85.2871C391.396 80.975 393.307 76.8275 396.271 73.5029C398.247 71.2646 400.487 70.0467 403.419 69.4871C406.35 68.9275 409.347 68.5654 412.345 68.5325C422.786 68.4667 432.931 74.6879 435.664 85.1554C437.048 90.4879 436.027 95.7546 433.458 100.527C430.954 105.103 427.562 109.514 423.016 112.18C414.387 117.216 402.595 115.768 395.514 108.724C395.052 108.263 394.361 108.987 394.822 109.415C401.508 116.031 412.081 117.94 420.744 114.385C425.586 112.41 429.307 108.691 432.206 104.412C435.401 99.7046 437.707 94.405 437.245 88.6117C436.389 77.8479 427.595 69.6187 417.186 67.9071C414.123 67.4133 410.994 67.4792 407.931 67.8412C405.164 68.1375 402.068 68.4008 399.532 69.6517C395.283 71.7254 392.384 76.63 390.771 80.8762C387.016 90.7512 388.992 102.568 396.172 110.37C396.568 110.83 397.259 110.139 396.831 109.678Z" fill="#E8E8E8"/>
<path d="M113.667 211.885C128.522 209.844 142.784 215.802 156.684 220.18C163.535 222.352 170.517 224.261 177.698 224.788C185.273 225.347 192.52 223.932 199.667 221.496C207.276 218.896 214.621 215.67 222.526 214.09C229.904 212.609 237.446 212.312 244.956 212.675C260.239 213.432 275.193 216.822 290.245 219.258C306.385 221.825 323.051 223.307 339.026 218.896C339.652 218.731 339.388 217.777 338.762 217.941C309.085 226.137 278.882 214.353 249.238 211.983C241.959 211.391 234.581 211.358 227.302 212.312C219.528 213.333 212.249 215.802 204.937 218.534C197.46 221.332 189.885 223.899 181.782 223.965C174.338 223.998 167.059 222.319 159.977 220.18C144.859 215.67 129.576 208.725 113.404 210.963C112.778 211.029 113.074 211.983 113.667 211.885Z" fill="#E8E8E8"/>
<path d="M228.619 198.092C234.614 194.932 241.004 192.135 247.789 191.312C254.574 190.489 261.063 192.2 267.42 194.373C273.744 196.512 279.969 198.685 286.523 200.002C292.913 201.285 299.402 201.977 305.924 202.075C319.296 202.273 332.438 199.837 344.987 195.229C357.602 190.587 369.526 184.267 381.91 179.1C395.975 173.207 411.126 168.764 426.508 170.41C427.134 170.475 427.134 169.488 426.508 169.422C398.708 166.46 374.236 182.457 349.533 192.431C336.72 197.599 323.38 200.825 309.547 201.088C302.729 201.22 295.878 200.693 289.158 199.508C282.472 198.323 276.082 196.348 269.692 194.11C262.808 191.707 255.76 189.534 248.382 190.291C241.201 191.015 234.482 193.945 228.125 197.27C227.565 197.533 228.059 198.389 228.619 198.092Z" fill="#E8E8E8"/>
<path d="M158.923 134.037C169.958 127.42 182.935 132.259 194.134 135.748C205.728 139.369 217.816 141.081 230.003 140.488C236.854 140.159 243.639 139.106 250.259 137.427C250.885 137.262 250.621 136.308 249.996 136.472C237.743 139.6 224.963 140.422 212.414 138.81C205.991 137.987 199.733 136.472 193.541 134.497C187.843 132.687 182.144 130.712 176.15 129.988C170.089 129.264 163.765 129.955 158.462 133.148C157.902 133.51 158.396 134.366 158.923 134.037Z" fill="#E8E8E8"/>
<path d="M311.424 331.734C311.424 334.269 313.796 336.112 316.529 338.284C319.099 340.292 323.216 342.86 329.046 343.946C330.001 347.238 331.977 353.591 333.295 353.262C334.382 352.998 334.876 347.896 334.25 343.749C334.019 342.202 333.789 340.753 332.965 339.272C331.022 335.882 328.486 337.001 325.752 334.335C322.326 330.977 323.644 326.566 321.009 324.986C317.616 322.945 311.424 327.587 311.424 331.734Z" fill="#161616"/>
<path d="M311.457 336.672C311.161 339.14 313.334 341.412 315.838 344.078C319.988 348.489 324.27 350.694 327.333 351.813C327.992 356.455 329.177 363.203 330.495 363.17C331.714 363.137 332.998 357.541 332.735 352.669C332.636 350.859 332.57 349.509 331.944 348.028C330.33 344.177 327.465 345.098 325.324 341.84C322.919 338.12 324.961 334.466 322.952 332.195C320.054 328.903 311.984 332.294 311.457 336.672Z" fill="#161616"/>
<path d="M279.244 327.488C278.025 327.356 277.465 329.891 275.259 333.874C274.04 336.112 271.01 341.609 266.398 344.736C262.775 347.172 259.613 347.205 259.646 348.357C259.679 349.213 261.458 349.773 262.413 349.904C264.752 350.233 266.497 348.686 267.057 348.193C270.779 345.823 273.711 343.387 275.786 341.478C280.924 336.77 281.517 334.73 281.616 333.215C281.78 330.549 280.529 327.62 279.244 327.488Z" fill="#161616"/>
<path d="M279.343 324.032C281.122 324.986 283.724 326.204 286.951 327.126C288.994 327.685 295.285 329.233 304.902 327.554C315.541 325.678 318.242 321.925 321.141 324.69C324.171 327.587 324.764 335.289 322.491 339.898C321.108 342.695 318.275 343.782 312.643 345.987C308.229 347.699 304.935 348.983 300.192 349.081C294.626 349.213 290.542 347.6 288.137 346.678C283.131 344.67 278.75 342.926 277.037 337.89C276.313 335.783 276.28 333.742 276.379 332.393C277.4 329.595 278.388 326.797 279.343 324.032Z" fill="#161616"/>
<path d="M312.873 328.41C313.137 326.5 315.344 326.007 317.254 324.789C322.293 321.53 321.602 315.309 325.06 314.453C327.992 313.729 329.243 318.041 332.208 317.218C335.699 316.23 336.687 309.515 337.906 309.976C338.795 310.305 339.322 314.453 337.906 317.053C336.457 319.687 333.426 319.983 329.968 320.312C326.509 320.641 326.246 319.851 324.797 320.641C322.129 322.155 322.623 325.085 319.362 328.212C317.517 329.99 314.619 331.734 313.4 330.45C312.972 329.99 312.775 329.134 312.873 328.41Z" fill="#161616"/>
<path d="M280.759 331.339C279.541 331.207 278.981 333.742 276.774 337.725C275.555 339.963 272.525 345.46 267.914 348.587C264.29 351.023 261.128 351.056 261.161 352.208C261.194 353.064 262.973 353.624 263.928 353.755C266.267 354.085 268.012 352.537 268.572 352.044C272.294 349.674 275.226 347.238 277.301 345.329C282.439 340.622 283.032 338.581 283.131 337.067C283.295 334.4 282.044 331.471 280.759 331.339Z" fill="#161616"/>
<path d="M263.796 326.5C264.587 331.438 263.862 332.458 265.081 334.071C266.925 336.54 270.384 336.869 270.977 336.935C273.546 337.198 273.941 336.145 276.708 336.441C279.804 336.77 280.298 338.12 281.846 337.626C284.119 336.902 284.778 333.314 284.975 332.195C285.008 332.096 285.008 331.997 285.008 331.932C285.272 329.726 284.745 327.751 284.02 326.204C279.738 324.361 277.202 322.057 275.654 320.312C274.007 318.436 272.986 316.527 272.097 316.757C271.108 317.02 270.977 319.752 271.01 321.892C269.824 322.221 268.638 322.55 267.452 322.88C264.389 319.785 263.335 319.555 262.907 319.818C262.215 320.213 263.105 322.057 263.796 326.5Z" fill="#161616"/>
<path d="M269.396 330.911C269.659 331.965 270.647 332.656 271.734 332.59C271.899 332.59 271.899 332.327 271.734 332.327C270.779 332.425 269.89 331.8 269.659 330.845C269.593 330.714 269.363 330.779 269.396 330.911Z" fill="white"/>
<path d="M269.297 330.845C269.297 331.24 269.297 331.668 269.198 332.063C269.165 332.261 269.099 332.425 269.001 332.59C269.001 332.59 268.539 333.248 268.474 333.15C268.408 333.018 268.177 333.15 268.276 333.281C268.474 333.643 268.968 333.084 269.099 332.919C269.527 332.327 269.56 331.537 269.56 330.845C269.527 330.681 269.297 330.681 269.297 330.845Z" fill="white"/>
<path d="M269.363 330.714C269.297 330.812 269.462 330.747 269.429 330.78C269.33 330.845 269.33 330.714 269.429 330.681C269.528 330.681 269.528 330.812 269.495 330.845C269.462 330.878 269.462 330.878 269.429 330.878C269.396 330.878 269.363 330.878 269.363 330.845V330.812C269.33 330.812 269.297 330.812 269.297 330.78C269.165 330.681 269.033 330.911 269.165 330.977C269.33 331.076 269.626 331.076 269.626 330.812C269.626 330.615 269.363 330.483 269.198 330.648C269.033 330.812 269.132 331.076 269.33 331.109C269.56 331.175 269.758 331.01 269.758 330.78C269.758 330.582 269.626 330.385 269.396 330.417C269.198 330.45 269.033 330.681 269.132 330.878C269.231 331.043 269.462 331.043 269.593 330.944C269.725 330.845 269.725 330.615 269.56 330.516C269.396 330.417 269.132 330.516 269.132 330.714C269.132 330.944 269.495 330.977 269.593 330.78C269.659 330.681 269.429 330.549 269.363 330.714Z" fill="white"/>
<path d="M266.168 328.969C266.563 328.377 267.452 328.245 267.98 328.739C268.111 328.837 268.276 328.673 268.144 328.574C267.485 327.982 266.431 328.146 265.937 328.87C265.871 328.969 266.102 329.101 266.168 328.969Z" fill="white"/>
<path d="M270.911 327.982C271.405 327.323 272.294 327.126 273.052 327.455C273.184 327.521 273.315 327.323 273.184 327.257C272.294 326.862 271.306 327.126 270.713 327.883C270.614 327.982 270.812 328.08 270.911 327.982Z" fill="white"/>
<path d="M272.887 318.633C273.315 319.456 273.612 320.345 273.744 321.267C273.776 321.431 274.007 321.365 273.974 321.201C273.809 320.246 273.513 319.357 273.085 318.502C273.052 318.37 272.821 318.502 272.887 318.633Z" fill="white"/>
<path d="M271.833 321.234C271.932 321.497 272.097 321.76 272.294 321.958C272.393 322.057 272.558 321.925 272.492 321.793C272.36 321.53 272.294 321.234 272.294 320.937C272.261 320.97 272.196 321.036 272.163 321.069C272.36 321.069 272.558 321.036 272.723 321.036C272.788 321.036 272.854 320.97 272.854 320.872C272.788 320.674 272.755 320.444 272.69 320.246C272.657 320.312 272.624 320.345 272.558 320.411C272.788 320.411 272.986 320.411 273.217 320.411C273.381 320.411 273.381 320.147 273.217 320.147C272.986 320.147 272.788 320.147 272.558 320.147C272.492 320.147 272.426 320.213 272.426 320.312C272.492 320.51 272.525 320.74 272.591 320.937C272.624 320.872 272.657 320.839 272.723 320.773C272.525 320.773 272.327 320.806 272.163 320.806C272.097 320.806 272.031 320.872 272.031 320.937C272.031 321.3 272.097 321.596 272.261 321.925C272.327 321.859 272.393 321.826 272.459 321.76C272.294 321.563 272.13 321.332 272.031 321.069C271.965 320.97 271.767 321.102 271.833 321.234Z" fill="white"/>
<path d="M268.012 331.471C267.354 331.207 266.695 330.878 266.102 330.483C265.97 330.384 265.838 330.615 265.97 330.681C266.596 331.076 267.255 331.405 267.946 331.701C268.111 331.767 268.177 331.537 268.012 331.471Z" fill="white"/>
<path d="M267.485 331.965C267.123 332.03 266.794 332.129 266.497 332.294C266.366 332.36 266.464 332.59 266.629 332.491C266.925 332.327 267.222 332.228 267.551 332.195C267.683 332.162 267.617 331.932 267.485 331.965Z" fill="white"/>
<path d="M271.207 330.681C271.866 330.154 272.558 329.693 273.282 329.233C273.414 329.167 273.282 328.936 273.151 329.035C272.393 329.496 271.701 329.99 271.01 330.516C270.911 330.615 271.076 330.78 271.207 330.681Z" fill="white"/>
<path d="M271.767 331.24C272.525 331.043 273.282 330.845 274.007 330.681C274.172 330.648 274.106 330.417 273.941 330.45C273.184 330.648 272.426 330.845 271.701 331.01C271.537 331.043 271.603 331.306 271.767 331.24Z" fill="white"/>
<path d="M268.111 333.446C269.231 333.051 269.495 331.866 269.528 330.812C269.528 330.648 269.297 330.648 269.264 330.812C269.198 331.734 269.001 332.82 268.012 333.182C267.881 333.248 267.947 333.512 268.111 333.446Z" fill="white"/>
<path d="M268.111 333.446C268.737 333.215 269.198 332.689 269.33 332.03C269.363 331.866 269.132 331.8 269.099 331.964C269.001 332.557 268.638 333.018 268.078 333.215C267.914 333.281 267.979 333.512 268.111 333.446Z" fill="white"/>
<path d="M263.566 321.53C264.323 322.353 264.883 323.274 265.279 324.328C265.344 324.459 265.575 324.427 265.509 324.262C265.114 323.176 264.521 322.221 263.731 321.365C263.632 321.267 263.467 321.431 263.566 321.53Z" fill="white"/>
<path d="M264.883 323.34C264.686 323.373 264.488 323.373 264.291 323.406C264.192 323.406 264.126 323.538 264.192 323.604C264.323 323.702 264.422 323.9 264.356 324.064C264.323 324.196 264.192 324.262 264.192 324.394C264.192 324.459 264.225 324.558 264.291 324.591C264.356 324.657 264.488 324.69 264.488 324.756C264.488 324.92 264.752 324.92 264.752 324.756C264.752 324.624 264.686 324.591 264.62 324.492C264.587 324.459 264.488 324.427 264.488 324.394C264.455 324.295 264.554 324.229 264.587 324.163C264.686 323.9 264.62 323.571 264.389 323.406C264.356 323.472 264.323 323.538 264.291 323.604C264.488 323.571 264.686 323.571 264.883 323.538C265.048 323.571 265.048 323.307 264.883 323.34Z" fill="white"/>
<path d="M301.477 293.748C308.987 295.855 316.496 297.995 324.006 300.101C326.147 302.175 329.474 305.006 334.118 307.31C342.122 311.293 351.805 312.642 352.596 310.766C352.958 309.943 350.916 308.1 346.832 304.413C343.34 301.286 341.792 300.332 339.322 298.06C337.51 296.382 335.007 293.847 332.405 290.259C329.408 290.226 325.785 289.93 321.766 289.074C315.278 287.659 310.139 285.289 306.582 283.248C304.869 286.77 303.157 290.259 301.477 293.748Z" fill="#161616"/>
<path d="M229.014 210.568C223.975 218.369 227.664 228.08 231.748 238.745C237.578 254.084 246.537 264.222 251.116 268.962C271.603 290.226 296.767 299.311 311.259 303.261C312.742 296.48 314.191 289.667 315.673 282.886C305.66 277.455 298.282 271.53 293.243 266.921C284.778 259.186 270.614 246.25 264.686 226.17C261.03 213.728 263.335 208.099 257.901 204.083C250.325 198.553 234.877 201.45 229.014 210.568Z" fill="#4F4F4F"/>
<path opacity="0.14" d="M262.117 214.255C259.35 218.731 255.859 226.006 256.88 234.4C258.065 244.11 264.653 250.265 280.331 264.09C294.099 276.204 305.528 286.046 313.532 292.86C314.224 289.535 314.882 286.243 315.574 282.919C310.37 279.989 303.618 275.71 296.339 269.719C292.32 266.395 286.457 261.523 280.166 253.82C275.819 248.488 269.989 241.246 265.937 230.219C263.599 223.833 262.611 218.205 262.117 214.255Z" fill="#6D6C6C"/>
<path opacity="0.14" d="M271.142 241.74C272.031 244.801 273.612 249.212 276.477 254.051C278.981 258.264 282.505 262.873 294.824 273.34C299.731 277.488 306.253 282.787 314.323 288.613C314.784 286.737 315.212 284.861 315.673 282.985C311.128 280.483 307.472 278.113 304.87 276.303C296.8 270.707 291.266 265.407 287.94 262.181C285.898 260.206 283.658 258.001 280.858 254.841C276.51 249.805 273.348 245.196 271.142 241.74Z" fill="#6D6C6C"/>
<path d="M198.975 285.354C203.159 289.107 207.342 292.859 211.525 296.612C206.946 313.202 205.563 321.826 207.407 322.583C209.614 323.472 216.465 312.873 227.993 290.786C220.55 285.585 213.139 280.384 205.695 275.216C203.422 278.574 201.182 281.964 198.975 285.354Z" fill="#161616"/>
<path d="M228.652 203.096C213.962 213.563 203.126 221.332 197.724 225.183C177.928 239.337 168.014 246.579 167.125 253.722C165.412 267.645 181.189 282.063 185.471 285.98C189.489 289.667 193.31 292.201 196.011 293.781C198.185 293.32 204.212 291.806 209.252 286.309C213.666 281.536 214.95 276.302 215.378 274.097C209.812 268.896 204.212 263.662 198.646 258.462C209.647 253.063 218.672 248.916 224.864 246.151C233.593 242.234 236.656 241.082 241.366 237.757C247.328 233.577 255.266 227.882 257.505 218.073C258.065 215.604 259.58 209.087 256.155 204.478C251.873 198.685 240.674 197.73 228.652 203.096Z" fill="#4F4F4F"/>
<path opacity="0.12" d="M245.384 210.37C246.504 211.16 256.353 218.336 254.706 225.216C254.508 225.973 254.014 227.553 249.403 231.569C243.243 236.967 237.446 240.061 234.548 241.542C228.356 244.735 223.876 246.644 219.496 248.554C214.39 250.759 207.045 254.051 198.086 258.297C203.751 263.531 209.384 268.764 215.049 273.998C214.851 275.512 214.423 277.422 213.567 279.495C212.249 282.721 210.438 285.058 209.12 286.507C207.243 282.919 204.641 278.705 201.051 274.426C194.99 267.152 188.501 262.477 183.659 259.581C195.517 254.512 211.558 245.854 227.137 231.174C234.713 223.998 240.707 216.822 245.384 210.37Z" fill="#6D6C6C"/>
<path opacity="0.19" d="M253.816 223.8C252.17 222.023 241.597 229.199 236.458 232.622C226.775 239.107 212.579 248.159 193.409 259.12C200.82 264.222 208.231 269.357 215.642 274.459C209.977 269.061 204.278 263.662 198.613 258.264C200.425 257.375 203.488 255.894 207.309 254.084C213.731 251.022 220.648 247.83 229.937 243.485C231.551 242.727 236.294 240.489 242.288 237.132C246.208 234.926 250.062 232.622 252.565 228.112C253.289 226.829 254.541 224.59 253.816 223.8Z" fill="#6D6C6C"/>
<path d="M240.378 140.061C238.731 138.283 235.305 139.007 233.593 139.369C227.697 140.587 224.37 144.109 218.87 148.948C215.905 151.548 211.59 155.136 206.024 159.218C204.377 151.812 202.763 144.438 201.116 137.032C201.775 136.209 202.862 134.596 203.224 132.358C203.422 131.173 203.916 126.993 201.05 124.359C197.888 121.43 192.157 121.858 189.522 124.886C186.854 127.947 188.238 132.621 188.897 134.86C189.522 136.966 190.478 138.579 191.235 139.633C191.005 141.97 190.774 145.36 191.005 149.442C191.235 153.82 191.499 158.296 193.574 163.234C195.253 167.217 197.263 171.99 201.512 173.734C206.123 175.643 210.899 172.911 220.22 167.414C234.844 158.79 238.336 151.647 239.159 149.903C240.048 148.026 242.585 142.463 240.378 140.061Z" fill="white" stroke="#161616" stroke-width="2" stroke-miterlimit="10"/>
<path d="M200.095 133.806C198.975 132.852 197.79 131.765 197.394 130.284C197.23 129.626 197.098 128.704 198.317 128.869C198.613 128.902 199.041 129.264 199.272 129.428C199.964 129.889 200.589 130.482 201.149 131.074C201.38 131.304 201.709 130.942 201.512 130.712C200.787 129.922 197.856 126.894 196.966 128.836C196.077 130.811 198.481 133.049 199.766 134.102C199.996 134.366 200.326 134.004 200.095 133.806Z" fill="#161616"/>
<path d="M189.094 125.511C189.259 127.914 190.016 131.568 193.244 131.041C193.574 130.975 193.409 130.514 193.113 130.58C190.247 131.041 189.72 127.552 189.588 125.511C189.555 125.215 189.061 125.215 189.094 125.511Z" fill="#161616"/>
<path d="M192.388 123.47C193.804 125.445 194.134 127.815 193.343 130.12C193.244 130.416 193.705 130.547 193.804 130.251C194.628 127.848 194.265 125.281 192.783 123.207C192.618 122.944 192.19 123.207 192.388 123.47Z" fill="#161616"/>
<path d="M196.077 122.647C197.329 124.952 197.032 127.684 195.319 129.692C195.122 129.922 195.451 130.284 195.682 130.054C197.526 127.914 197.888 124.919 196.505 122.417C196.373 122.121 195.945 122.384 196.077 122.647Z" fill="#161616"/>
<path d="M200.161 124.326C200.721 125.577 200.425 126.992 199.437 127.914C199.206 128.144 199.568 128.474 199.799 128.276C200.952 127.19 201.281 125.511 200.622 124.063C200.458 123.767 200.029 124.03 200.161 124.326Z" fill="#161616"/>
<path opacity="0.17" d="M192.289 122.944C192.849 122.779 193.541 122.582 194.199 122.845C195.978 123.569 196.769 127.223 195.188 129.132C194.562 129.922 193.672 130.218 193.113 130.383C193.145 130.942 193.178 131.864 193.244 133.016C193.244 133.016 193.409 136.077 193.607 138.678C194.134 145.656 194.661 152.305 197.493 159.218C198.382 161.423 199.898 164.517 202.467 168.007C203.784 167.743 206.452 167.085 209.581 165.768C227.532 158.165 236.557 137.954 239.752 139.6C240.345 139.896 240.839 141.048 240.905 141.245C241.498 142.694 241.201 144.109 240.74 145.623C239.554 149.442 237.743 152.24 237.216 153.03C235.272 155.926 233.428 157.802 232.934 158.296C230.76 160.469 228.817 161.785 225.227 164.09C218.507 168.369 215.148 170.508 212.875 171.43C208.264 173.306 204.344 174.919 200.721 173.207C198.547 172.187 197.46 170.442 195.879 167.809C192.52 162.147 191.894 156.617 191.4 151.482C191.103 148.553 190.906 144.537 191.235 139.731C189.391 136.769 188.666 134.102 188.337 132.424C187.908 130.218 187.579 128.375 188.501 126.367C188.765 125.972 189.885 123.635 192.289 122.944Z" fill="#6D6C6C"/>
<path opacity="0.2" d="M240.971 142.891C240.608 142.727 239.488 144.438 238.303 146.216C236.59 148.816 235.734 150.133 234.317 153.095C230.332 161.456 217.058 168.204 215.345 169.093C212.644 170.442 208.758 172.121 203.751 173.306C201.446 171.199 197.197 166.822 194.792 160.633C193.475 157.243 192.981 153.885 192.882 153.326C192.52 150.989 192.487 149.178 192.454 147.104C192.421 144.241 192.52 141.739 192.717 139.731C191.993 138.382 191.301 136.834 190.642 135.189C189.522 132.325 188.798 129.659 188.337 127.322C188.205 129.165 188.238 131.897 189.16 135.024C189.753 136.999 190.51 138.612 191.235 139.83C190.609 145.162 190.84 149.606 191.235 152.766C191.235 152.766 192.124 160.074 195.945 168.171C196.571 169.488 197.46 171.167 199.272 172.483C201.61 174.162 204.114 174.294 204.904 174.294C206.222 174.327 207.737 174.129 213.764 170.969C219.001 168.237 222.624 165.9 223.975 165.011C226.511 163.365 227.763 162.509 229.113 161.456C231.88 159.251 236.392 155.63 239.159 149.705C240.575 146.611 241.432 143.122 240.971 142.891Z" fill="#6D6C6C"/>
<path d="M243.342 132.292C236.952 136.67 229.245 143.582 226.017 153.918C223.646 161.522 225.194 166.624 224.864 178.902C224.667 185.913 223.942 196.085 221.373 208.527C222.888 210.14 231.913 219.324 245.813 218.995C254.442 218.797 260.634 215.012 263.269 213.168C261.293 200.792 261.82 190.917 262.677 184.103C264.225 172.022 268.243 165.011 268.21 151.252C268.21 144.537 267.288 139.04 266.497 135.386C264.752 134.07 261.425 131.93 256.748 131.008C250.49 129.856 245.45 131.469 243.342 132.292Z" fill="white" stroke="#161616" stroke-width="2" stroke-miterlimit="10"/>
<path opacity="0.13" d="M253.125 131.074C253.191 134.3 253.191 139.04 252.664 144.702C252.071 151.45 250.687 160.732 244.857 178.869C241.761 188.514 237.249 201.055 230.793 215.472C234.383 217.415 237.578 218.237 239.719 218.6C247.657 219.949 254.08 217.546 257.143 216.361C259.844 215.308 261.952 214.123 263.401 213.234C262.841 209.844 262.248 205.202 262.051 199.607C261.952 196.973 261.787 188.382 263.829 176.4C265.707 165.34 267.189 164.748 268.078 157.407C269.165 148.224 267.881 140.422 266.53 135.09C264.883 134.004 262.314 132.555 258.922 131.732C256.682 131.206 254.673 131.074 253.125 131.074Z" fill="#6D6C6C"/>
<path opacity="0.15" d="M258.691 131.963C259.021 138.118 259.152 146.117 258.461 155.4C258.131 159.942 257.407 168.994 255.101 179.067C253.026 188.217 248.711 202.108 239.027 217.908C241.432 218.468 244.923 218.995 249.073 218.567C255.793 217.875 260.667 215.11 263.138 213.432C261.161 199.409 262.084 188.415 263.368 180.844C264.587 173.668 266.003 170.113 266.958 162.312C268.309 151.022 267.354 141.607 266.3 135.287C265.542 134.596 264.291 133.576 262.512 132.819C260.997 132.259 259.646 132.062 258.691 131.963Z" fill="#6D6C6C"/>
<path d="M261.787 136.308C266.53 136.308 272.722 136.802 279.738 138.645C288.697 141.015 295.581 144.702 300.159 147.664C301.675 151.746 304.441 160.963 301.872 172.023C300.588 177.618 298.348 181.93 296.437 184.893C296.306 188.25 297.063 190.456 297.821 191.871C298.677 193.55 299.995 195.064 299.468 196.48C299.204 197.204 298.545 197.632 298.051 197.895C298.018 197.994 297.623 198.751 296.734 198.981C295.713 199.212 294.988 198.553 294.922 198.488C294.725 198.652 293.868 199.475 292.518 199.475C291.036 199.508 290.113 198.553 289.949 198.389C289.652 198.52 288.928 198.718 288.038 198.553C286.82 198.323 286.161 197.467 285.963 197.237C285.272 196.677 283.493 194.998 283.328 192.53C283.262 191.608 283.46 190.752 283.987 189.468C284.646 187.888 285.996 185.288 288.862 182.556C289.751 178.408 290.41 173.043 290.048 166.822C289.85 163.629 289.422 160.765 288.895 158.23C283.888 156.387 277.696 154.643 270.483 153.754C267.584 153.392 264.817 153.227 262.248 153.194C257.868 150.791 255.694 146.15 256.715 142.134C257.769 138.415 261.161 136.637 261.787 136.308Z" fill="white" stroke="#161616" stroke-width="2" stroke-miterlimit="10"/>
<path d="M284.942 189.929C284.382 192.497 284.317 195.13 285.93 197.335C286.128 197.599 286.556 197.335 286.359 197.072C284.811 194.965 284.876 192.497 285.403 190.061C285.469 189.765 285.008 189.6 284.942 189.929Z" fill="#161616"/>
<path d="M287.841 191.081C287.874 193.55 288.269 196.48 289.916 198.422C290.114 198.652 290.476 198.323 290.278 198.06C288.73 196.249 288.368 193.385 288.335 191.081C288.335 190.752 287.841 190.752 287.841 191.081Z" fill="#161616"/>
<path d="M291.332 191.509C291.563 193.978 292.518 197.171 294.725 198.586C294.988 198.751 295.252 198.323 294.988 198.158C292.946 196.842 292.057 193.78 291.826 191.509C291.793 191.18 291.299 191.18 291.332 191.509Z" fill="#161616"/>
<path d="M294.231 191.805C294.626 194.274 295.877 196.447 297.788 198.06C298.018 198.257 298.381 197.928 298.15 197.697C296.273 196.15 295.12 194.044 294.725 191.674C294.659 191.345 294.198 191.476 294.231 191.805Z" fill="#161616"/>
<path opacity="0.17" d="M257.374 141.081C262.973 140.62 272.558 140.62 283.328 144.735C289.652 147.17 294.56 150.297 298.019 152.964C300.028 171.891 297.195 179.955 294 183.741C293.308 184.531 290.575 187.559 290.245 191.904C289.982 195.196 291.135 199.212 292.749 199.442C293.407 199.541 294.033 198.981 294.527 198.422C295.482 199.113 296.207 199.08 296.47 199.014C296.701 198.981 297.03 198.882 298.282 197.928C299.27 197.171 299.764 196.776 299.863 196.578C300.489 195.36 298.776 193.715 297.656 191.575C296.932 190.192 296.207 188.086 296.306 184.992C298.578 181.371 302.86 173.339 302.893 162.477C302.926 156.157 301.477 151.022 300.225 147.631C297.294 145.689 294.692 144.372 292.781 143.484C292.287 143.253 292.222 143.187 284.119 140.192C280.726 138.941 280.035 138.678 278.75 138.382C276.971 137.954 276.873 138.085 272.788 137.394C270.68 137.032 268.572 136.769 266.464 136.407C265.904 136.308 263.796 135.979 261.952 136.538C261.688 136.637 261.063 136.802 260.371 137.262C260.206 137.394 259.712 137.723 259.021 138.48C258.592 139.073 257.967 139.896 257.374 141.081Z" fill="#6D6C6C"/>
<path opacity="0.14" d="M299.896 148.092C300.522 153.918 300.588 158.856 300.522 162.542C300.423 167.184 300.357 169.85 299.501 173.471C298.381 178.244 296.438 182.457 296.24 182.885C295.219 185.025 295.054 185.025 294.494 186.539C293.704 188.678 292.123 192.859 294 196.085C294.231 196.512 295.548 198.784 297.393 198.586C299.105 198.422 299.995 196.183 300.028 196.085C299.237 194.735 298.381 192.99 297.656 190.95C297.03 189.139 296.635 187.46 296.405 186.045C298.315 182.984 300.653 178.474 301.938 172.615C304.342 161.39 301.444 152.174 299.896 148.092Z" fill="#6D6C6C"/>
<path d="M235.635 109.81C228.389 110.962 226.215 121.166 225.984 122.187C225.49 124.491 224.205 130.515 228.191 134.991C232.11 139.402 238.171 138.908 238.929 138.842C240.444 138.711 244.034 138.085 246.768 135.255C251.577 130.35 251.05 121.66 247.196 116.13C246.735 115.505 241.926 108.822 235.635 109.81Z" fill="#303030"/>
<path d="M239.587 122.812C239.423 124.227 240.114 124.952 241.959 128.803C243.408 131.831 244.363 134.366 244.956 135.979C246.142 136.242 249.271 136.802 252.762 135.32C255.134 134.333 256.649 132.819 257.439 131.897C256.385 130.185 254.969 127.651 253.816 124.392C252.005 119.389 252.433 117.447 250.786 116.459C247.492 114.583 240.048 118.566 239.587 122.812Z" fill="white" stroke="#161616" stroke-width="2" stroke-miterlimit="10"/>
<path d="M233.395 86.3733C230.826 88.1508 229.904 90.8171 228.125 95.985C226.116 101.844 224.798 106.946 224.469 110.567C224.403 111.094 224.733 111.62 225.26 111.818C225.951 112.081 227.104 112.081 227.763 112.18C227.829 113.793 228.125 116.031 229.146 118.467C231.155 123.306 234.713 126.005 236.359 127.058C238.402 127.256 243.54 127.486 248.612 124.392C251.972 122.318 253.718 119.751 254.113 119.125C256.682 115.208 256.912 111.291 256.912 109.612C257.703 109.547 258.955 109.349 260.173 108.526C262.677 106.847 264.554 102.963 262.973 100.824C261.787 99.2767 258.823 98.8487 256.023 100.231C255.957 99.0133 255.727 97.3346 255.101 95.3925C254.936 94.9317 253.783 91.3767 251.642 88.9737C247.492 84.3654 238.599 82.7196 233.395 86.3733Z" fill="white" stroke="#161616" stroke-width="2" stroke-miterlimit="10"/>
<path d="M241.662 128.046C244.923 127.75 247.855 126.4 250.193 124.096C250.654 123.635 249.93 122.944 249.501 123.405C247.36 125.544 244.693 126.795 241.662 127.091C241.037 127.091 241.004 128.079 241.662 128.046Z" fill="#161616"/>
<path d="M242.156 128.869C245.549 127.914 248.546 126.137 250.984 123.569C251.412 123.108 250.72 122.417 250.292 122.878C247.986 125.314 245.154 127.025 241.926 127.914C241.267 128.079 241.531 129.033 242.156 128.869Z" fill="#161616"/>
<path d="M226.643 100.001C226.182 99.5729 222.592 96.0508 223.119 90.8829C223.711 85.3858 228.487 82.7525 229.278 82.3245C233.494 80.0204 237.644 80.975 238.599 81.2383C240.081 80.3166 242.749 78.9341 246.274 78.5062C251.511 77.8479 255.595 79.5595 257.242 80.3825C259.416 81.0408 262.512 82.3245 265.081 85.0895C268.671 88.9408 267.848 92.1337 271.537 98.6183C272.986 101.186 272.92 100.363 278.421 107.736C283.361 114.352 285.832 117.71 286.227 120.146C287.05 125.478 284.185 131.008 280.627 134.267C273.711 140.587 261.392 140.85 255.529 134.497C250.687 129.264 251.774 121.232 252.104 118.665C252.696 114.287 254.343 110.962 255.529 109.02C256.089 109.119 256.945 109.25 257.901 109.02C259.712 108.625 261.886 107.144 262.281 104.774C262.314 104.609 262.775 101.383 260.47 100.165C259.02 99.4083 257.11 99.7375 255.793 101.021C254.146 100.462 251.412 99.3754 248.711 97.0712C246.01 94.767 244.462 92.2983 243.672 90.7512C242.486 90.2245 240.147 89.4675 237.282 89.8295C231.649 90.5537 228.619 95.1291 228.158 95.8533C227.664 97.2029 227.137 98.5854 226.643 100.001Z" fill="#303030"/>
<path d="M233.988 103.062C233.889 102.733 233.823 102.437 233.823 102.107C233.823 101.91 233.823 101.712 233.856 101.515C233.889 101.317 233.988 101.219 233.823 101.087C233.593 100.922 233.724 101.252 233.757 101.383C233.757 101.548 233.757 101.712 233.757 101.91C233.757 102.075 233.757 102.832 233.593 102.93C233.724 102.897 233.856 102.897 233.988 102.865C234.087 102.996 234.12 102.996 234.087 102.865C234.087 102.766 234.054 102.7 234.054 102.601C234.021 102.404 233.988 102.239 233.988 102.042C233.988 101.68 234.021 101.317 234.219 101.021C234.548 100.462 233.692 99.9679 233.362 100.527C233.099 100.988 233 101.515 233 102.075C233 102.535 233.033 103.227 233.329 103.589C233.593 103.951 234.087 103.918 234.383 103.589C234.746 103.194 234.778 102.437 234.811 101.91C234.844 101.449 234.877 100.824 234.581 100.429C234.317 100.067 233.856 100.001 233.494 100.264C232.67 100.89 232.835 102.502 233.099 103.358C233.197 103.918 234.153 103.655 233.988 103.062Z" fill="#161616"/>
<path d="M231.682 98.8487C233.197 97.6637 235.47 97.9928 236.557 99.5399C236.821 99.9349 237.479 99.5399 237.183 99.1778C235.767 97.2028 233.033 96.8408 231.122 98.322C230.793 98.6183 231.32 99.1449 231.682 98.8487Z" fill="#161616"/>
<path d="M228.718 116.327C230.826 115.669 232.638 114.484 234.054 112.838C234.35 112.476 233.856 111.95 233.527 112.312C232.176 113.892 230.497 115.011 228.52 115.636C228.059 115.735 228.257 116.459 228.718 116.327Z" fill="#161616"/>
<path d="M233.955 106.255C233.955 106.156 233.922 106.189 233.856 106.387C233.79 106.42 233.724 106.42 233.659 106.452C233.659 106.452 233.659 106.452 233.692 106.452C233.626 106.42 233.56 106.42 233.494 106.387L233.461 106.354C233.428 106.288 233.395 106.255 233.362 106.189C233.362 106.222 233.362 106.222 233.362 106.156C233.395 106.09 233.395 106.025 233.428 105.959C233.461 105.926 233.527 105.86 233.56 105.827C233.659 105.827 233.757 105.794 233.856 105.794C233.856 105.794 233.856 105.794 233.823 105.794C233.362 105.695 233.165 106.387 233.626 106.518C234.054 106.617 234.284 106.09 233.988 105.794C233.856 105.662 233.626 105.662 233.461 105.728C233.296 105.827 233.23 106.025 233.23 106.222C233.197 106.749 233.955 106.749 233.955 106.255Z" fill="#161616"/>
<path d="M237.216 103.523C237.216 103.523 237.249 103.523 237.249 103.49C237.315 103.49 237.381 103.49 237.446 103.49C237.611 103.523 237.677 103.72 237.578 103.852C237.545 103.885 237.479 103.951 237.446 103.984C237.413 103.984 237.381 104.017 237.315 104.017C237.249 103.984 237.183 103.984 237.117 103.951L237.084 103.918C237.051 103.852 237.018 103.819 236.985 103.753C236.985 103.655 236.985 103.589 237.051 103.523C237.117 103.49 237.15 103.457 237.216 103.424C237.249 103.424 237.249 103.424 237.282 103.424C237.084 103.391 236.919 103.622 236.919 103.786C236.919 104.017 237.084 104.115 237.282 104.148C237.545 104.181 237.743 103.918 237.743 103.655C237.743 103.358 237.413 103.161 237.15 103.26C236.59 103.49 237.084 104.445 237.578 104.083C237.743 103.984 237.809 103.753 237.71 103.589C237.644 103.49 237.381 103.424 237.216 103.523Z" fill="#161616"/>
<path d="M237.15 107.078C237.282 107.144 237.282 107.341 237.15 107.407C236.952 107.308 236.788 107.21 236.59 107.078C236.59 107.177 236.59 107.275 236.59 107.374C236.755 107.242 236.886 107.144 237.051 107.012C237.084 107.078 237.084 107.111 237.117 107.144C237.084 106.946 236.952 106.782 236.755 106.782C236.557 106.782 236.359 106.946 236.392 107.144C236.425 107.407 236.59 107.67 236.854 107.703C237.084 107.736 237.315 107.605 237.315 107.341C237.315 107.242 237.315 107.144 237.315 107.045C237.315 106.749 236.985 106.584 236.755 106.716C236.392 106.913 236.392 107.44 236.755 107.67C237.216 107.934 237.578 107.308 237.15 107.078Z" fill="#161616"/>
<path opacity="0.15" d="M243.441 90.6525C244.001 92.43 244.693 94.9975 245.253 98.1246C246.438 104.675 247.591 110.6 245.253 116.525C243.243 121.66 239.62 125.083 236.755 127.124C239.06 127.025 241.86 126.696 244.956 125.807C246.438 125.38 247.789 124.886 249.007 124.392C249.469 126.104 249.93 128.408 249.93 131.173C249.93 133.115 249.699 134.827 249.436 136.209C250.061 136.242 251.247 136.242 252.565 135.715C253.75 135.222 254.541 134.53 255.002 134.102C255.694 134.827 256.781 135.748 258.23 136.637C263.467 139.731 268.935 138.908 270.45 138.645C271.767 138.415 278.519 137.164 282.9 131.074C284.119 129.395 286.523 126.005 286.128 121.265C285.766 116.821 283.098 113.925 282.176 112.97C281.681 114.188 280.331 116.953 277.334 119.027C276.774 119.422 272.13 122.516 266.629 121.035C261.524 119.685 257.637 114.879 256.912 109.02C257.407 109.02 258.23 108.987 259.152 108.625C259.613 108.427 261.227 107.67 261.985 105.794C262.117 105.432 262.742 103.852 261.985 102.14C261.853 101.844 261.03 100.001 259.053 99.7045C257.275 99.4412 255.957 100.659 255.826 100.824C253.882 100.198 250.49 98.8487 247.328 95.7875C245.417 93.977 244.199 92.1008 243.441 90.6525Z" fill="#424242"/>
<path opacity="0.23" d="M259.119 108.526C257.868 108.23 256.616 107.934 255.364 107.605C254.87 108.296 254.179 109.316 253.454 110.633C251.675 113.826 251.313 115.801 250.325 118.006C249.534 119.784 248.118 122.187 245.483 124.688C246.998 124.162 248.513 123.602 250.029 123.075C250.753 124.557 251.939 127.486 251.642 131.272C251.511 133.082 251.083 134.596 250.621 135.715C252.104 135.222 253.586 134.695 255.068 134.201C254.343 133.247 253.355 131.765 252.631 129.757C251.61 126.894 251.675 124.524 251.708 122.384C251.741 121.43 251.873 118.434 253.026 114.715C253.75 112.443 254.607 110.6 255.364 109.25C255.858 109.316 256.616 109.349 257.472 109.152C258.164 108.987 258.724 108.757 259.119 108.526Z" fill="#6D6C6C"/>
<path opacity="0.25" d="M227.664 117.216C227.368 117.973 225.918 121.923 227.96 125.84C229.508 128.836 233.23 132.062 237.051 131.074C239.62 130.416 241.004 128.177 241.465 127.42C242.716 130.416 243.968 133.411 245.22 136.407C244.89 136.67 244.363 137.065 243.705 137.427C238.994 140.126 233.79 138.415 233.395 138.283C232.374 137.921 229.179 136.769 227.104 133.51C225.161 130.416 225.358 127.289 225.523 124.886C225.721 121.43 226.841 118.796 227.664 117.216Z" fill="#424242"/>
<path d="M60.5062 198.125C71.6061 197.566 82.1132 201.483 92.0603 205.96C102.139 210.502 111.955 215.44 122.626 218.468C128.917 220.278 135.373 221.496 141.895 222.253C142.521 222.319 142.521 221.332 141.895 221.266C130.037 219.916 118.509 216.756 107.574 211.983C97.7915 207.704 88.3384 202.536 78.0619 199.475C72.3637 197.763 66.4679 196.842 60.5062 197.138C59.8475 197.138 59.8475 198.125 60.5062 198.125Z" fill="#161616"/>
<path d="M124.668 203.787C144.2 212.51 166.137 211.424 186.756 207.803C193.211 206.684 199.634 205.334 206.024 203.952C206.65 203.82 206.386 202.865 205.761 202.997C184.845 207.441 163.205 211.95 141.862 208.033C136.131 206.98 130.498 205.301 125.195 202.931C124.603 202.701 124.108 203.557 124.668 203.787Z" fill="#161616"/>
<path d="M277.235 275.019C291.299 280.483 306.418 275.973 319.724 270.542C326.905 267.613 333.986 264.387 341.397 261.984C348.907 259.581 356.647 257.869 364.486 256.948C373.182 255.927 381.976 255.861 390.705 256.684C391.33 256.75 391.33 255.763 390.705 255.697C375.652 254.248 360.369 255.565 345.811 259.614C331.022 263.761 317.616 271.892 302.597 275.183C294.297 276.994 285.535 277.158 277.498 274.064C276.906 273.834 276.642 274.788 277.235 275.019Z" fill="#161616"/>
<path d="M369.361 241.74C388.3 236.177 408.721 236.671 427.364 243.155C427.957 243.353 428.221 242.398 427.628 242.201C408.82 235.683 388.201 235.19 369.098 240.785C368.505 240.95 368.768 241.905 369.361 241.74Z" fill="#161616"/>
<path d="M250.523 90.5537C257.604 89.1054 264.686 87.6242 271.899 86.9987C279.145 86.3733 286.26 86.8342 293.374 88.1837C307.01 90.8171 320.284 95.0962 334.184 96.4787C341.792 97.2358 349.467 97.1042 356.977 95.59C357.602 95.4583 357.339 94.5037 356.713 94.6354C342.715 97.4662 328.453 95.2279 314.718 92.1008C301.049 89.0067 287.676 84.8592 273.48 85.8467C265.641 86.4062 257.934 87.9862 250.259 89.5662C249.633 89.7308 249.897 90.6854 250.523 90.5537Z" fill="#161616"/>
<path d="M295.548 96.4129C317.452 103.589 340.442 109.843 363.729 107.275C369.954 106.584 376.113 105.235 382.042 103.194C382.635 102.996 382.371 102.042 381.779 102.239C359.941 109.843 336.391 107.045 314.52 101.153C308.229 99.4742 302.004 97.4992 295.845 95.4913C295.219 95.2609 294.955 96.2154 295.548 96.4129Z" fill="#161616"/>
</svg>
