<svg width="24" height="25" viewBox="0 0 24 25" fill="none" xmlns="http://www.w3.org/2000/svg">
<ellipse cx="11.5789" cy="7.54792" rx="4.77803" ry="4.81565" stroke="black" stroke-width="1.5" stroke-linecap="round" stroke-linejoin="round"/>
<path fill-rule="evenodd" clip-rule="evenodd" d="M4.00002 19.0612C3.99873 18.7227 4.07385 18.3883 4.2197 18.0833C4.67736 17.1608 5.96798 16.6718 7.03892 16.4504C7.81128 16.2843 8.59431 16.1733 9.38217 16.1183C10.8408 15.9892 12.3079 15.9892 13.7666 16.1183C14.5544 16.174 15.3374 16.2849 16.1099 16.4504C17.1808 16.6718 18.4714 17.1147 18.9291 18.0833C19.2224 18.705 19.2224 19.4267 18.9291 20.0483C18.4714 21.017 17.1808 21.4598 16.1099 21.672C15.3384 21.845 14.5551 21.9591 13.7666 22.0133C12.5794 22.1148 11.3866 22.1333 10.1968 22.0687C9.92221 22.0687 9.65677 22.0687 9.38217 22.0133C8.59663 21.9598 7.81632 21.8457 7.04807 21.672C5.96798 21.4598 4.68652 21.017 4.2197 20.0483C4.0746 19.7398 3.99955 19.4026 4.00002 19.0612Z" stroke="black" stroke-width="1.5" stroke-linecap="round" stroke-linejoin="round"/>
</svg>
