<svg width="43" height="23" viewBox="0 0 43 23" fill="none" xmlns="http://www.w3.org/2000/svg">
<path d="M39.8348 5.11839L37.8103 8.15517L37.0689 7.41379L35.5861 8.15517L34.8448 7.41379H31.8793V4.44827L34.1034 2.96552L38.5517 2.22414L40.0344 4.44827L39.8348 5.11839Z" fill="#FDC5CA"/>
<path d="M2.86102e-05 22.9828H4.44831V22.2446C4.44831 22.0208 4.386 21.8015 4.26838 21.6112C4.15075 21.4209 3.98246 21.2671 3.78234 21.167L2.96555 20.7586V20.0172L10.3793 18.5345L16.3104 16.3103L16.5754 16.2047C18.8598 15.2904 21.0141 14.0796 22.9828 12.6035L22.6612 11.6397L21.5 8.15518C20.5659 7.92136 19.5932 7.8855 18.6444 8.04988C17.6956 8.21427 16.7917 8.57527 15.9907 9.1097L14.0862 10.3793L10.9113 13.0251C10.0716 13.7252 9.38569 14.5912 8.89658 15.569C7.97463 15.3383 7.01186 15.3238 6.08337 15.5265C5.15488 15.7292 4.28576 16.1437 3.54382 16.7376L2.22417 17.7931L1.48279 17.0517H2.86102e-05V22.9828Z" fill="#FDC5CA"/>
<path d="M21.4999 8.15517L22.6611 11.6397L22.9827 12.6034L25.2068 11.8621H28.9137L32.7263 9.95579L32.6206 9.63793L33.211 9.04759C33.4939 8.76467 33.7184 8.42876 33.8715 8.05906C34.0247 7.68936 34.1034 7.29312 34.1034 6.89296V6.8207C34.1033 6.31906 33.9795 5.82519 33.7428 5.3829C33.5061 4.9406 33.164 4.56354 32.7467 4.28517L32.6466 4.21845C32.146 3.88472 31.5578 3.70672 30.9562 3.70689H30.1963C28.8827 3.70696 27.6044 4.13293 26.5534 4.92091L25.2068 5.93103L21.4999 8.15517Z" fill="#F4DB71"/>
<path d="M34.1034 2.96552C34.298 3.25774 34.5483 3.50874 34.84 3.70417C35.1317 3.8996 35.459 4.03563 35.8032 4.10449C36.1475 4.17334 36.502 4.17366 36.8464 4.10544C37.1908 4.03722 37.5183 3.90179 37.8103 3.7069L39.2384 5.49177L39.6434 5.99868C39.786 6.17679 39.9646 6.32282 40.1674 6.42726C40.3703 6.53169 40.5928 6.59218 40.8207 6.60477C41.0485 6.61737 41.2764 6.58178 41.4895 6.50034C41.7026 6.4189 41.8962 6.29343 42.0575 6.13213L43 5.18966L42.368 4.45291L38.5517 0L34.1034 2.96552Z" fill="#BA8B5D"/>
<path d="M39.2384 5.49176L39.6434 5.99868C39.786 6.17679 39.9646 6.32282 40.1674 6.42726C40.3703 6.53169 40.5928 6.59218 40.8207 6.60477C41.0485 6.61736 41.2764 6.58178 41.4895 6.50034C41.7026 6.41889 41.8962 6.29343 42.0575 6.13212L43 5.18965L42.368 4.45291L42.3624 4.44827L41.4209 5.39074C41.1351 5.67659 40.7529 5.84541 40.3492 5.86409C39.9455 5.88278 39.5493 5.74999 39.2384 5.49176Z" fill="#9F764A"/>
<path d="M22.6611 11.6397L22.9827 12.6034L25.2068 11.8621H28.9137L32.7262 9.95579L32.6206 9.63793L33.0107 9.24777L29.6551 6.67241L27.5857 9.54525L27.4615 10.9048H25.2374L22.6611 11.6397Z" fill="#D6323F"/>
<path d="M28.4059 17.9015L28.7803 21.6473C28.8169 22.0132 28.9881 22.3525 29.2607 22.5992C29.5334 22.846 29.8879 22.9827 30.2557 22.9828H35.5862C35.5862 22.7476 35.5399 22.5148 35.4499 22.2976C35.3599 22.0804 35.228 21.883 35.0617 21.7168L34.6279 21.2832C34.4618 21.1168 34.2644 20.9849 34.0472 20.8949C33.83 20.8049 33.5972 20.7586 33.362 20.7586H31.1379L32.2185 16.4355C32.4774 15.3977 32.3571 14.3017 31.8793 13.3448C32.3252 12.8994 32.638 12.3385 32.7827 11.7251C32.9275 11.1117 32.8983 10.4701 32.6985 9.87239L32.6207 9.63793L33.0553 9.2033C33.7264 8.53197 34.1034 7.62163 34.1034 6.67241L30.3854 7.36745L30.037 8.23671C29.6727 9.14769 28.7247 9.41088 28.6561 10.3793C28.6404 10.6036 28.6324 10.8281 28.632 11.053C28.6321 11.8256 28.7267 12.5952 28.9138 13.3448C28.4253 14.811 28.2522 16.3638 28.4059 17.9015Z" fill="#FDC5CA"/>
<path d="M32.6985 9.87239L32.6206 9.63793L33.0553 9.2033C33.7263 8.53197 34.1033 7.62163 34.1034 6.67241H29.6551L29.3076 7.54076C28.9447 8.44749 28.7249 9.40509 28.6561 10.3793H32.8254C32.7962 10.2073 32.7537 10.0379 32.6985 9.87239Z" fill="#F4DB71"/>
<path d="M14.0862 10.3793L15.8665 15.1269L16.3104 16.3103L16.5754 16.2047C18.8598 15.2904 21.0141 14.0796 22.9828 12.6035L22.6612 11.6397L21.5 8.15518C20.5659 7.92136 19.5932 7.8855 18.6444 8.04988C17.6956 8.21427 16.7917 8.57527 15.9907 9.1097L14.0862 10.3793Z" fill="#68737F"/>
<path d="M2.96555 20.0172L10.3793 18.5345L16.3104 16.3103L16.5754 16.2047C18.8598 15.2904 21.0141 14.0796 22.9828 12.6034L22.6612 11.6397L15.8665 15.1269L10.1477 17.6078L2.23807 19.3155L2.96555 20.0172Z" fill="#FC979E"/>
<path d="M15.8665 15.1269L16.3104 16.3103L16.5754 16.2047C18.8598 15.2904 21.0141 14.0796 22.9828 12.6034L22.6612 11.6397L15.8665 15.1269Z" fill="#4F5761"/>
<path d="M28.406 17.9015L28.7804 21.6473C28.817 22.0132 28.9882 22.3525 29.2608 22.5992C29.5335 22.846 29.888 22.9827 30.2558 22.9827H31.7589C31.1722 22.9827 30.6047 22.7737 30.1582 22.3931C29.7117 22.0125 29.4155 21.4852 29.3226 20.9059L29.2327 20.3434C29.1247 19.6714 29.0704 18.9918 29.0705 18.3111C29.0706 16.617 29.4057 14.9396 30.0565 13.3754C29.4639 12.5507 29.0172 11.6304 28.7359 10.6545L28.6562 10.3793C28.6405 10.6036 28.6325 10.8281 28.6321 11.053C28.6322 11.8256 28.7268 12.5952 28.9139 13.3448C28.4254 14.811 28.2523 16.3638 28.406 17.9015Z" fill="#FC979E"/>
<path d="M-3.38554e-05 17.0517V22.9828H4.44824V22.2441C4.44778 22.0206 4.38524 21.8015 4.26759 21.6114C4.14994 21.4212 3.98181 21.2675 3.78193 21.1673L2.96548 20.7586V20.0172L2.2241 17.7931L1.48272 17.0517H-3.38554e-05Z" fill="#529DDF"/>
<path d="M1.48274 21.5H4.1897C4.08026 21.3601 3.94095 21.2465 3.78195 21.1673L2.9655 20.7586V20.0172C2.77076 20.0172 2.57792 20.0555 2.398 20.13C2.21808 20.2045 2.05461 20.3137 1.91691 20.4514C1.77921 20.5891 1.66999 20.7526 1.5955 20.9325C1.521 21.1124 1.48268 21.3053 1.48274 21.5Z" fill="#4384C3"/>
<path d="M4.44824 22.9828V22.2414H0.741346V17.0517H-3.38554e-05V22.9828H4.44824Z" fill="#D4E4F0"/>
</svg>
