<svg width="112" height="49" viewBox="0 0 112 49" fill="none" xmlns="http://www.w3.org/2000/svg">
<path d="M98.7812 4.35938L94.9375 8.20312L87.25 10.125L89.1719 13.9688L87.25 17.8125L91.0938 23.5781V29.3438L98.7812 27.4219L104.547 17.8125L98.7812 4.35938Z" fill="#FDC5CA"/>
<path d="M96.8594 0.515625L95.4483 1.9267C94.7794 2.59557 94.3807 3.4876 94.3284 4.43208C94.2761 5.37656 94.5739 6.30717 95.1648 7.04582C96.8461 9.14744 97.9398 11.6575 98.3343 14.3198C98.7288 16.9821 98.4101 19.7014 97.4105 22.2003L96.8594 23.5781L108.391 13.9688L96.8594 0.515625Z" fill="#BA8B5D"/>
<path d="M12.2969 38.9531L28.2311 8.53329C28.8107 7.4268 29.6511 6.4782 30.6798 5.76959C31.7084 5.06098 32.8943 4.61369 34.1347 4.46645C35.375 4.3192 36.6326 4.47642 37.7986 4.92451C38.9646 5.37259 40.0038 6.09804 40.8263 7.03809L60.3438 29.3437V48.5625C56.8605 48.5625 53.4427 47.6158 50.4558 45.8237C47.4689 44.0315 45.0252 41.4613 43.386 38.3878L33.4375 19.7343L32.2904 25.4696C32.0551 26.6465 31.5128 27.7402 30.7185 28.64C29.9242 29.5398 28.9061 30.2136 27.7675 30.5931C26.4538 31.031 25.3049 31.8591 24.474 32.9669L19.9844 38.9531L16.1406 40.875L12.2969 38.9531Z" fill="#FDC5CA"/>
<path d="M19.9844 38.9531V48.5625H0.765628C0.764115 46.8835 1.29203 45.2468 2.2743 43.8851C3.25665 42.5231 4.64253 41.5044 6.23576 40.9735L12.2969 38.9531H19.9844Z" fill="#529DDF"/>
<path d="M60.3438 48.5625H53.0782C51.1375 48.5625 49.2198 48.1426 47.4567 47.3317C45.6936 46.5208 44.1268 45.338 42.8638 43.8646L35.3594 35.1094L50.4922 18.0849L60.3438 29.3438V48.5625Z" fill="#68737F"/>
<path d="M111.804 19.0401C111.804 19.3656 111.765 19.6899 111.687 20.0058C110.787 23.6007 108.928 26.8838 106.308 29.5047L102.404 33.4085C98.7375 37.0748 94.4419 40.0522 89.722 42.1987L84.2447 44.6875C78.6254 47.2414 72.5244 48.5627 66.352 48.5625H60.3438V29.3437L77.6406 27.4219L87.25 23.5781H93.0156L98.8942 19.9049L105.698 15.6528C106.302 15.2746 106.996 15.0653 107.709 15.0465C108.422 15.0277 109.126 15.2002 109.75 15.5459C110.373 15.8917 110.892 16.3982 111.254 17.0127C111.615 17.6272 111.805 18.3272 111.804 19.0401Z" fill="#E04446"/>
<path d="M111.804 19.0401C111.804 19.3656 111.765 19.6899 111.687 20.0058C110.787 23.6007 108.928 26.8838 106.308 29.5047L105.7 30.1125L98.8941 19.9049L105.698 15.6528C106.302 15.2746 106.996 15.0653 107.709 15.0465C108.422 15.0277 109.126 15.2002 109.75 15.5459C110.373 15.8917 110.892 16.3982 111.254 17.0127C111.615 17.6272 111.805 18.3272 111.804 19.0401Z" fill="#FDC5CA"/>
<path d="M93.0156 23.5781L89.1719 31.2656L85.7341 29.5455L88.7178 23.5781H93.0156Z" fill="#D6323F"/>
<path d="M19.9844 46.6406V48.5625H0.765625C0.766149 47.9149 0.844384 47.2696 0.998652 46.6406H19.9844Z" fill="#D4E4F0"/>
</svg>
