<svg width="113" height="113" viewBox="0 0 113 113" fill="none" xmlns="http://www.w3.org/2000/svg">
<path d="M44.9688 6.53125L43.0469 10.375L44.9688 12.2969L46.8906 16.1406H50.7344V23.8281L58.4219 18.0625L56.5 12.2969L52.6562 4.60938L44.9688 6.53125Z" fill="#FDC5CA"/>
<path d="M39.2031 19.9844L44.9688 21.9062V25.75L50.7344 27.6719V35.3594L35.3594 27.6719L39.2031 19.9844Z" fill="#FDC5CA"/>
<path d="M0.765625 96.8594H100.703V104.547H0.765625V96.8594Z" fill="#68737F"/>
<path d="M29.5937 54.5781L14.6031 104.547H6.91562L21.9062 54.5781H29.5937Z" fill="#3E454D"/>
<path d="M106.465 112.234H37.2777V104.547H103.582C103.881 104.547 104.175 104.616 104.442 104.75C104.709 104.883 104.941 105.077 105.12 105.316L108.003 109.159C108.217 109.445 108.347 109.784 108.379 110.14C108.411 110.495 108.344 110.853 108.184 111.172C108.025 111.491 107.779 111.76 107.476 111.947C107.172 112.135 106.822 112.234 106.465 112.234Z" fill="#4F5761"/>
<path d="M75.7188 112.234H4.60938L6.41113 104.547H72.8359C73.1343 104.547 73.4286 104.616 73.6954 104.75C73.9623 104.883 74.1944 105.077 74.3734 105.316L77.2562 109.159C77.4704 109.445 77.6008 109.784 77.6329 110.14C77.6649 110.495 77.5973 110.853 77.4377 111.172C77.2781 111.491 77.0327 111.76 76.7291 111.947C76.4255 112.135 76.0757 112.234 75.7188 112.234Z" fill="#3E454D"/>
<path d="M41.125 112.234H12.2969V104.547H38.2422C38.5405 104.547 38.8348 104.616 39.1017 104.75C39.3685 104.883 39.6007 105.077 39.7797 105.316L42.6625 109.159C42.8766 109.445 43.0071 109.784 43.0391 110.14C43.0712 110.495 43.0036 110.853 42.844 111.172C42.6844 111.491 42.439 111.76 42.1354 111.947C41.8318 112.135 41.4819 112.234 41.125 112.234Z" fill="#4F5761"/>
<path d="M21.9062 54.5781L4.60938 37.2812L12.2969 29.5938L29.5938 46.8906V54.5781H21.9062Z" fill="#68737F"/>
<path d="M29.5938 46.8906H41.125C42.1444 46.8906 43.1221 47.2956 43.8429 48.0164C44.5638 48.7373 44.9688 49.7149 44.9688 50.7344C44.9688 51.7538 44.5638 52.7315 43.8429 53.4523C43.1221 54.1732 42.1444 54.5781 41.125 54.5781H29.5938V46.8906Z" fill="#4F5761"/>
<path d="M16.6091 104.547L14.3028 112.234H2.60342L4.90967 104.547H16.6091Z" fill="#8F9EB0"/>
<path d="M100.703 106.469H110.312L112.234 94.9375H100.703V106.469Z" fill="#8F9EB0"/>
<path d="M48.8125 89.1719L46.6912 93.4168L44.9688 96.8594L31.5156 89.1719C31.6303 88.9435 31.757 88.7214 31.8952 88.5064C32.5262 87.5315 33.3912 86.73 34.4112 86.1749C35.4313 85.6197 36.574 85.3287 37.7353 85.3281H43.0469L48.8125 89.1719Z" fill="#529DDF"/>
<path d="M94.9375 71.875V87.25C93.8027 87.2502 92.6939 86.9102 91.7544 86.2739C90.8148 85.6375 90.0876 84.734 89.6668 83.6802L87.25 77.6406V71.875H94.9375Z" fill="#529DDF"/>
<path d="M68.0312 43.0469C68.0309 49.1991 65.5872 55.0992 61.2374 59.45L59.575 61.1125L52.6562 68.0312L54.5781 73.7969L48.8125 89.1719L43.0469 85.3281L44.7141 66.9814C44.8825 65.1287 45.3195 63.3103 46.0114 61.5834L47.1813 58.6548L52.6562 44.9688L68.0312 43.0469Z" fill="#FDC5CA"/>
<path d="M87.25 71.875V77.6406L67.8871 72.7999C66.7375 72.5121 65.67 71.9625 64.7678 71.1941C63.8656 70.4256 63.1532 69.4592 62.686 68.37L61.4753 65.5448L59.575 61.1125L52.6562 44.9688L68.0312 43.0469C70.5572 48.1033 71.8731 53.6777 71.875 59.3299V64.1875H77.6406L87.25 71.875Z" fill="#FDC5CA"/>
<path d="M71.875 59.3299V60.3437L61.4752 65.5448L61.2062 64.9178L59.575 61.1125L55.4334 65.2541L47.1813 58.6548L52.6562 44.9687L68.0312 43.0469C70.5572 48.1033 71.8731 53.6777 71.875 59.3299Z" fill="#529DDF"/>
<path d="M67.3946 57.9559C66.3917 59.4719 65.2392 60.8836 63.9545 62.1696L61.2062 64.9178L59.575 61.1126L61.2374 59.45C62.3394 58.3476 63.3277 57.1371 64.1875 55.837L67.3946 57.9559Z" fill="#317ECE"/>
<path d="M47.1813 26.4875L48.5723 30.7779L45.4812 32.7329L50.7344 35.3594V27.6719L47.1813 26.4875Z" fill="#FC979E"/>
<path d="M49.7464 23.0022C50.039 21.5394 50.758 20.1959 51.8129 19.141C52.8677 18.0862 54.2112 17.3672 55.6741 17.0746L57.695 16.6704C58.4881 16.5118 59.3098 16.5808 60.0653 16.8694C60.8208 17.1581 61.4792 17.6546 61.9644 18.3016L63.201 19.9504C65.1036 22.4872 66.2762 25.4961 66.5917 28.6513L68.0312 43.0469L52.6562 44.9688L49.8455 32.3206C49.1643 29.2553 49.1306 26.0814 49.7464 23.0022Z" fill="#E04446"/>
<path d="M58.5225 17.0764C57.3959 17.3581 56.3957 18.0083 55.681 18.9236C54.9663 19.839 54.5781 20.967 54.5781 22.1283V22.1414C54.5781 23.2014 54.9016 24.2362 55.5054 25.1074C56.1092 25.9787 56.9645 26.6449 57.957 27.0171L59.7031 27.6719L64.1875 31.5157C61.6597 31.5157 59.1667 32.1042 56.9058 33.2346L56.5 33.4375L52.6563 31.5157L46.8906 33.4375L48.8125 41.125L68.6448 36.5483C69.2357 36.412 69.7859 36.1378 70.2505 35.7481C70.7152 35.3584 71.081 34.8643 71.3181 34.3062C71.5553 33.7481 71.657 33.1418 71.615 32.5368C71.573 31.9319 71.3885 31.3454 71.0765 30.8254L64.2507 19.4491C63.6764 18.4919 62.8096 17.7445 61.7782 17.3173C60.7469 16.8901 59.6055 16.8057 58.5225 17.0764Z" fill="#FDC5CA"/>
<path d="M56.5 12.2969L50.7344 6.53125H44.9688C43.4396 6.53125 41.9731 5.9238 40.8918 4.84254C39.8106 3.76127 39.2031 2.29476 39.2031 0.765625H54.5781L56.5 12.2969Z" fill="#BA8B5D"/>
<path d="M46.6912 93.4168L44.9687 96.8593L31.5156 89.1718L31.8952 88.5064C32.4832 87.5949 33.2773 86.8345 34.2135 86.2867L46.6912 93.4168Z" fill="#D4E4F0"/>
<path d="M94.9375 71.875V87.25C93.5136 87.2497 92.1418 86.7147 91.0938 85.7509V71.875H94.9375Z" fill="#D4E4F0"/>
</svg>
